


Format                           : AVI
Format/Info                      : Audio Video Interleave
File size                        : 1.36 GiB
Duration                         : 1h 20mn
Overall bit rate                 : 2 408 Kbps
Writing application              : VirtualDubMod 1.5.10.2 (build 2540/release)
Writing library                  : VirtualDub build 32839/release

Video
ID                               : 0
Format                           : MPEG-4 Visual
Format profile                   : Advanced Simple@L5
Format settings, BVOP            : Yes
Format settings, QPel            : No
Format settings, GMC             : No warppoints
Format settings, Matrix          : Custom
Codec ID                         : XVID
Codec ID/Hint                    : XviD
Duration                         : 1h 20mn
Bit rate                         : 2 140 Kbps
Width                            : 720 pixels
Height                           : 336 pixels
Display aspect ratio             : 2.2:1
Frame rate                       : 29.970 fps
Color space                      : YUV
Chroma subsampling               : 4:2:0
Bit depth                        : 8 bits
Scan type                        : Progressive
Bits/(Pixel*Frame)               : 0.295
Stream size                      : 1.21 GiB (89%)
Writing library                  : XviD 1.2.1 (UTC 2008-12-04)

Audio
ID                               : 1
Format                           : MPEG Audio
Format version                   : Version 1
Format profile                   : Layer 3
Codec ID                         : 55
Codec ID/Hint                    : MP3
Duration                         : 1h 20mn
Bit rate mode                    : Constant
Bit rate                         : 256 Kbps
Channel(s)                       : 2 channels
Sampling rate                    : 44.1 KHz
Stream size                      : 148 MiB (11%)
Alignment                        : Split accross interleaves
Interleave, duration             : 33 ms (1.00 video frame)
Interleave, preload duration     : 500 ms



 
http://www.imdb.com/title/tt1305591/






Users: 4.1/10 (805 votes) 30 reviews | Critics: 63 reviews Metascore: 49/100 (based on 22 reviews from Metacritic.com)

A young boy named Milo gains a deeper appreciation for his mom after Martians come to Earth to take her away.
Director:
Simon Wells
Writers:
Simon Wells (screenplay), Wendy Wells (screenplay), and 1 more credit »
Stars:
Seth Green, Joan Cusack and Dan Fogler 







 
http://img851.imageshack.us/img851/6836/vlcsnap2011032716h52m45.png
 
http://img291.imageshack.us/img291/4070/vlcsnap2011032716h47m36.png
 
http://img694.imageshack.us/img694/6301/vlcsnap2011032716h46m53.png



Sources

Video TOXiCiNK ............... Thanks guys
Audio Imagine  ...................Thanks guys


Few filters sharpen ,brightness/contrast and rgb ........Enjoy !



Greetz to Imagine ,Flawl3ss,DiLLoN,BDK,NOiR,TOXiCiNK,THC,Ez,Rx,



